<svg width="1923" height="1082" xmlns="http://www.w3.org/2000/svg" xmlns:xlink="http://www.w3.org/1999/xlink" overflow="hidden"><defs><clipPath id="clip0"><path d="M24 45 1947 45 1947 1127 24 1127Z" fill-rule="evenodd" clip-rule="evenodd"/></clipPath><clipPath id="clip1"><path d="M25 46 1947 46 1947 1126 25 1126Z" fill-rule="evenodd" clip-rule="evenodd"/></clipPath><clipPath id="clip2"><path d="M25 46 1947 46 1947 1127 25 1127Z" fill-rule="evenodd" clip-rule="evenodd"/></clipPath><clipPath id="clip3"><path d="M25 36 1989 36 1989 1143 25 1143Z" fill-rule="evenodd" clip-rule="evenodd"/></clipPath></defs><g clip-path="url(#clip0)" transform="translate(-24 -45)"><g clip-path="url(#clip1)"><g clip-path="url(#clip2)"><g clip-path="url(#clip3)"><path d="M1605.53 73.9231 1975.97 73.9231 1975.97 75.9649 1605.53 75.9649Z" fill="#4472C4" transform="matrix(0.915151 -0.404312 0.404116 0.914708 148.792 767.667)"/><path d="M155.812-98.8652 157.854-98.8652 157.854 248.766 155.812 248.766Z" fill="#4472C4" transform="matrix(0.431441 -0.902141 0.902549 0.431636 47.7174 221.301)"/><path d="M1621.18 149.881 313.613 149.881 0 0 1959.89 0 1621.18 149.881" fill="#74C9D6" transform="matrix(1.00072 0 -0 1 26.1237 37.2029)"/><path d="M313.613 149.881 1621.18 149.881 1621.18 779.547 313.613 779.547Z" fill="#040606" transform="matrix(1.00072 0 -0 1 26.1237 37.2029)"/><path d="M1621.6 150.81 314.348 780.251 1620.47 780.281" fill="#040606" transform="matrix(1.00072 0 -0 1 26.1237 37.2029)"/><path d="M313.613 779.547 1621.18 779.547 1959.89 1102.44 0 1102.44 313.613 779.547" fill="#D9D9D9" transform="matrix(1.00072 0 -0 1 26.1237 37.2029)"/><path d="M1622.2 780.567 312.592 780.567 312.592 148.86 1622.2 148.86 1622.2 780.567ZM314.634 778.526 1620.16 778.526 1620.16 150.901 314.634 150.901 314.634 778.526Z" fill="#4472C4" transform="matrix(1.00072 0 -0 1 26.1237 37.2029)"/><path d="M1790.13 707.253 1792.17 707.253 1792.17 1175.38 1790.13 1175.38Z" fill="#4472C4" transform="matrix(0.690259 -0.723563 0.723588 0.690282 -100.011 1624.92)"/><path d="M1605.53 73.9231 1975.97 73.9231 1975.97 75.9649 1605.53 75.9649Z" fill="#4472C4" transform="matrix(0.915151 -0.404312 0.404116 0.914708 148.792 767.667)"/><path d="M155.812-98.8652 157.854-98.8652 157.854 248.766 155.812 248.766Z" fill="#4472C4" transform="matrix(0.431441 -0.902141 0.902549 0.431636 47.7174 221.301)"/><path d="M0 1103.46C-0.255194 1103.46-0.510388 1103.37-0.714543 1103.17-1.12285 1102.79-1.13306 1102.13-0.734959 1101.73L312.878 778.842C313.266 778.434 313.919 778.424 314.317 778.822 314.716 779.22 314.736 779.863 314.338 780.261L0.734959 1103.15C0.530804 1103.36 0.265402 1103.46 0 1103.46Z" fill="#4472C4" transform="matrix(1.00072 0 -0 1 26.1237 37.2029)"/><path d="M1959.89 1058.68C1959.65 1058.68 1959.39 1058.59 1959.2 1058.4L1620.78 743.748 314.042 743.748 0.724751 1058.37C0.326648 1058.77-0.316441 1058.77-0.714543 1058.37-1.11265 1057.97-1.11265 1057.33-0.714543 1056.92L313.195 741.696 1621.58 741.696 1621.88 741.972 1960.59 1056.9C1961.01 1057.29 1961.03 1057.93 1960.65 1058.34 1960.44 1058.57 1960.17 1058.68 1959.89 1058.68Z" fill="#4472C4" transform="matrix(1.00072 0 -0 1 26.1237 37.2029)"/><path d="M966.379 779.547 968.421 779.547 968.421 1102.44 966.379 1102.44Z" fill="#74C9D6" transform="matrix(1.00072 0 -0 1 26.1237 37.2029)"/><path d="M1213.57 776.478 1215.61 776.478 1215.61 1105.56 1213.57 1105.56Z" fill="#74C9D6" transform="matrix(0.978372 -0.210004 0.209867 0.97773 -144.487 313.233)"/><path d="M1480.24 753.944 1482.28 753.944 1482.28 1128.39 1480.24 1128.39Z" fill="#74C9D6" transform="matrix(0.859818 -0.511272 0.511096 0.859523 -246.97 926.839)"/><path d="M550.063 942.901 879.141 942.901 879.141 944.942 550.063 944.942Z" fill="#74C9D6" transform="matrix(0.210138 -0.977672 0.978313 0.210276 -332.459 1481.54)"/><path d="M261.011 943.048 635.461 943.048 635.461 945.09 261.011 945.09Z" fill="#74C9D6" transform="matrix(0.511865 -0.859066 0.859361 0.51204 -566.462 883.259)"/><path d="M242.741 851.491 1697.72 851.491 1697.72 853.532 242.741 853.532Z" fill="#74C9D6" transform="matrix(1.00072 0 -0 1 26.1237 37.2029)"/><path d="M122.769 975.015 1827.29 975.015 1827.29 977.057 122.769 977.057Z" fill="#74C9D6" transform="matrix(1.00072 0 -0 1 26.1237 37.2029)"/><path d="M1697.72 852.512 1697.72 325.066 1827.29 302.242 1827.29 976.036Z" fill="#74C9D6" transform="matrix(1.00072 0 -0 1 26.1237 37.2029)"/><path d="M1828.31 976.036 1826.27 976.036 1826.27 303.456 1698.75 325.924 1698.75 852.512 1696.7 852.512 1696.7 324.209 1828.31 301.027Z" fill="#4472C4" transform="matrix(1.00072 0 -0 1 26.1237 37.2029)"/><path d="M1810.04 961.745C1809.48 961.745 1809.02 961.286 1809.02 960.724L1809.02 339.133 1710.95 351.402 1710.95 863.25C1710.95 863.812 1710.49 864.271 1709.93 864.271 1709.37 864.271 1708.91 863.812 1708.91 863.25L1708.91 349.596 1811.06 336.815 1811.06 960.724C1811.06 961.286 1810.61 961.745 1810.04 961.745Z" fill="#4472C4" transform="matrix(1.00072 0 -0 1 26.1237 37.2029)"/><path d="M1784.86 640.159C1776.71 640.159 1770.08 633.524 1770.08 625.379 1770.08 617.233 1776.71 610.598 1784.86 610.598 1793.01 610.598 1799.64 617.233 1799.64 625.379 1799.64 633.524 1793 640.159 1784.86 640.159ZM1784.86 612.639C1777.84 612.639 1772.12 618.356 1772.12 625.379 1772.12 632.402 1777.84 638.118 1784.86 638.118 1791.88 638.118 1797.6 632.402 1797.6 625.379 1797.6 618.356 1791.88 612.639 1784.86 612.639Z" fill="#4472C4" transform="matrix(1.00072 0 -0 1 26.1237 37.2029)"/><path d="M49.4566 271.394 261.013 305.304 261.013 551.219 47.1803 674.794Z" fill="#D9D9D9" transform="matrix(1.00072 0 -0 1 26.1237 37.2029)"/><path d="M46.1493 676.571 48.4358 270.2 262.023 304.436 262.023 551.811 46.1493 676.571ZM50.4672 272.588 48.2113 673.018 259.992 550.627 259.992 306.172 50.4672 272.588Z" fill="#4472C4" transform="matrix(1.00072 0 -0 1 26.1237 37.2029)"/><path d="M47.1803 675.815 36.6969 675.815 40.2492 270.373 49.4566 270.373 49.4566 272.415 42.2806 272.415 38.7589 673.774 47.1803 673.774Z" fill="#4472C4" transform="matrix(1.00072 0 -0 1 26.1237 37.2029)"/><path d="M63.4719 647.764 63.4719 289.472 254.357 313.266 254.357 545.932 63.4719 647.764ZM65.5134 291.789 65.5134 644.365 252.316 544.707 252.316 315.073 65.5134 291.789Z" fill="#4472C4" transform="matrix(1.00072 0 -0 1 26.1237 37.2029)"/><path d="M1799.08 319.128 1838.76 319.128 1838.76 321.17 1799.08 321.17Z" fill="#4472C4" transform="matrix(0.435359 -0.900257 0.900659 0.435554 765.862 1855.53)"/><path d="M1703.04 323.722 1705.08 323.722 1705.08 351.94 1703.04 351.94Z" fill="#4472C4" transform="matrix(0.901982 -0.432814 0.432619 0.901577 47.8243 807.987)"/><path d="M88.2972 440.302 139.683 410.628 153.811 519.494 99.1684 572.839Z" fill="#74C9D6" transform="matrix(1.00072 0 -0 1 26.1237 37.2029)"/><path d="M177.391 335.652 172.368 446.151 222.58 434.493 222.58 344.522Z" fill="#74C9D6" transform="matrix(1.00072 0 -0 1 26.1237 37.2029)"/><path d="M181.943 479.642 237.126 464.392 237.126 512.716 181.943 536.724Z" fill="#74C9D6" transform="matrix(1.00072 0 -0 1 26.1237 37.2029)"/><path d="M119.002 432.85C119.002 434.259 117.86 435.402 116.45 435.402 115.041 435.402 113.898 434.259 113.898 432.85 113.898 431.441 115.041 430.298 116.45 430.298 117.86 430.298 119.002 431.441 119.002 432.85Z" fill="#4472C4" transform="matrix(1.00072 0 -0 1 26.1237 37.2029)"/><path d="M207.657 346.605C207.657 348.014 206.514 349.157 205.105 349.157 203.695 349.157 202.553 348.014 202.553 346.605 202.553 345.195 203.695 344.053 205.105 344.053 206.514 344.053 207.657 345.195 207.657 346.605Z" fill="#4472C4" transform="matrix(1.00072 0 -0 1 26.1237 37.2029)"/><path d="M214.639 479.03C214.639 480.439 213.496 481.582 212.087 481.582 210.677 481.582 209.535 480.439 209.535 479.03 209.535 477.621 210.677 476.478 212.087 476.478 213.496 476.478 214.639 477.621 214.639 479.03Z" fill="#4472C4" transform="matrix(1.00072 0 -0 1 26.1237 37.2029)"/><path d="M1765.66 808.661 1767.7 808.661 1767.7 1027.31 1765.66 1027.31Z" fill="#4472C4" transform="matrix(0.690259 -0.723563 0.723588 0.690282 -90.7091 1599.99)"/></g></g></g></g></svg>