<svg width="181" height="104" xmlns="http://www.w3.org/2000/svg" xmlns:xlink="http://www.w3.org/1999/xlink" overflow="hidden"><defs><clipPath id="clip0"><path d="M537 676 718 676 718 780 537 780Z" fill-rule="evenodd" clip-rule="evenodd"/></clipPath><clipPath id="clip1"><path d="M538 677 718 677 718 779 538 779Z" fill-rule="evenodd" clip-rule="evenodd"/></clipPath><clipPath id="clip2"><path d="M538 677 718 677 718 779 538 779Z" fill-rule="evenodd" clip-rule="evenodd"/></clipPath><clipPath id="clip3"><path d="M538 677 718 677 718 779 538 779Z" fill-rule="evenodd" clip-rule="evenodd"/></clipPath><clipPath id="clip4"><path d="M538 713 715 713 715 760 538 760Z" fill-rule="evenodd" clip-rule="evenodd"/></clipPath><clipPath id="clip5"><path d="M538 747 715 747 715 780 538 780Z" fill-rule="evenodd" clip-rule="evenodd"/></clipPath><clipPath id="clip6"><path d="M694 756 715 756 715 780 694 780Z" fill-rule="evenodd" clip-rule="evenodd"/></clipPath><clipPath id="clip7"><path d="M630 756 715 756 715 763 630 763Z" fill-rule="evenodd" clip-rule="evenodd"/></clipPath></defs><g clip-path="url(#clip0)" transform="translate(-537 -676)"><g clip-path="url(#clip1)"><g clip-path="url(#clip2)"><g clip-path="url(#clip3)"><path d="M115.851 33.0602C124.81 34.3506 129.289 34.9939 129.289 34.9939 151.246 19.3995 162.225 11.6023 162.225 11.6023 95.9798 4.36644 62.8572 0.748532 62.8572 0.748532 36.6586 15.9687 25.1031 22.6899 25.1031 22.6899 56.7832 24.187 84.5705 28.5592 115.851 33.0602" fill="#4FBC9D" fill-rule="evenodd" transform="matrix(1.0084 0 -0 1 538.277 677)"/><path d="M129.184 35.7346 115.746 33.8009C112.65 33.3545 109.59 32.9101 106.557 32.4695 78.9487 28.4637 53.5844 24.7834 25.0895 23.4365 24.8361 23.4326 24.5924 23.3 24.456 23.0642 24.2493 22.7074 24.3721 22.2513 24.7289 22.0447 24.762 22.0252 36.2824 15.3254 62.4732 0.107212 62.6077 0.0272902 62.7676-0.0116958 62.9352 0.00584793L162.303 10.8596C162.508 10.883 162.704 10.9882 162.833 11.1695 163.071 11.5048 162.993 11.9707 162.658 12.2104L129.748 35.5845C129.592 35.7054 129.393 35.7639 129.184 35.7346ZM115.956 32.3214 129.102 34.2122 160.192 12.1325 63.019 1.51851C43.4246 12.9024 32.0836 19.495 27.6548 22.07 55.2238 23.5125 79.939 27.0992 106.767 30.992 109.8 31.4306 112.861 31.875 115.956 32.3214" fill-rule="evenodd" transform="matrix(1.0084 0 -0 1 538.277 677)"/><path d="M25.1031 22.6899C23.0427 26.5924 22.84 30.9276 24.4949 35.6956 77.7402 42.9841 114.06 47.3174 133.453 48.7014 130.642 46.1868 129.254 41.6176 129.289 34.9939 129.289 34.9939 124.81 34.3506 115.851 33.0602 84.5705 28.5592 56.7832 24.187 25.1031 22.6899" fill="#4FBC9D" fill-rule="evenodd" transform="matrix(1.0084 0 -0 1 538.277 677)"/><path d="M22.6606 28.836C22.7659 26.5554 23.3604 24.3897 24.4423 22.3429 24.5729 22.0934 24.84 21.9297 25.1382 21.9453 53.7267 23.2961 79.1242 26.9803 106.767 30.992 109.8 31.4306 112.861 31.875 115.956 32.3214L129.395 34.2551C129.757 34.3077 130.036 34.6196 130.034 34.9978 130.018 38.2336 130.344 40.9588 131.017 43.1732 131.664 45.3018 132.629 46.947 133.911 48.1107 134.1 48.2589 134.217 48.4967 134.198 48.754 134.169 49.1653 133.812 49.4753 133.401 49.448 123.687 48.754 109.748 47.3232 91.5802 45.1556 73.4731 42.9938 51.0776 40.0874 24.3955 36.4364 24.1246 36.3974 23.8848 36.2141 23.7893 35.9393 22.9316 33.4637 22.5554 31.0953 22.6606 28.836ZM25.5495 23.4599C24.7055 25.1869 24.2396 27.0017 24.1519 28.9004 24.0602 30.8438 24.3604 32.8847 25.0544 35.0192 51.4148 38.6254 73.6505 41.5085 91.7556 43.6702 108.775 45.7014 122.071 47.0835 131.642 47.8183 130.777 46.6644 130.093 45.2589 129.59 43.6059 128.921 41.4012 128.572 38.7463 128.545 35.643L115.746 33.8009C112.65 33.3545 109.59 32.9101 106.557 32.4695 79.0988 28.4871 53.8573 24.8244 25.5495 23.4599" fill-rule="evenodd" transform="matrix(1.0084 0 -0 1 538.277 677)"/><path d="M117.637 47.3037C120.145 47.5552 122.508 47.7833 124.724 47.984 123.219 44.4324 122.11 39.7229 122.57 34.027L116.588 33.1674C115.629 38.3077 115.978 43.0211 117.637 47.3037" fill="#F6CD47" fill-rule="evenodd" transform="matrix(1.0084 0 -0 1 538.277 677)"/><path d="M121.219 48.4051C119.993 48.2881 118.775 48.1673 117.564 48.0464 117.293 48.0191 117.048 47.8437 116.943 47.5727 116.085 45.3603 115.566 43.0387 115.385 40.6098 115.208 38.2063 115.362 35.6917 115.847 33.068L115.847 33.0621C115.906 32.6528 116.284 32.3682 116.693 32.4267L122.644 33.2824C123.048 33.3233 123.348 33.6781 123.317 34.0855 123.11 36.6391 123.225 38.99 123.555 41.1205 123.941 43.6254 124.617 45.8184 125.405 47.6799 125.455 47.7911 125.479 47.9197 125.467 48.0503 125.43 48.4616 125.067 48.7638 124.658 48.7267 123.512 48.6234 122.364 48.5162 121.219 48.4051ZM118.173 46.6078C119.297 46.7189 120.36 46.8242 121.36 46.9197L123.582 47.1302C122.943 45.4188 122.405 43.487 122.075 41.3486 121.761 39.3077 121.631 37.0777 121.775 34.6684L117.198 34.0095C116.83 36.259 116.722 38.4247 116.876 40.5046 117.034 42.6313 117.467 44.6663 118.173 46.6078" fill-rule="evenodd" transform="matrix(1.0084 0 -0 1 538.277 677)"/><path d="M89.7635 44.1848C92.4613 44.5084 95.0675 44.8164 97.5841 45.1108 95.8355 40.1888 95.3794 35.2259 96.2176 30.222 93.7342 29.8653 91.2644 29.5144 88.8024 29.1694 87.9447 35.2298 88.2644 40.2356 89.7635 44.1848" fill="#F6CD47" fill-rule="evenodd" transform="matrix(1.0084 0 -0 1 538.277 677)"/><path d="M93.6543 45.4012 89.6757 44.9275C89.4087 44.8944 89.167 44.717 89.0656 44.448 88.2898 42.4032 87.818 40.0933 87.6543 37.5163 87.4906 34.9646 87.627 32.1479 88.0637 29.0661 88.1202 28.6587 88.4964 28.3721 88.9038 28.4286L92.6075 28.951 96.3404 29.4852C96.7478 29.5514 97.0227 29.9374 96.9544 30.3448 96.5451 32.7853 96.4515 35.2142 96.6737 37.6293 96.894 40.0367 97.4301 42.4402 98.2819 44.8398 98.3228 44.949 98.3404 45.0698 98.3267 45.1946 98.28 45.6039 97.9096 45.8983 97.5002 45.8535ZM90.3073 43.4967 93.8297 43.9158 96.5022 44.2316C95.8238 42.0874 95.3872 39.9315 95.1884 37.7638 94.9778 35.4656 95.0363 33.1615 95.3638 30.8536 93.3911 30.5729 91.4165 30.2922 89.4418 30.0134 89.1007 32.7035 89.0013 35.1732 89.1455 37.4208 89.2898 39.6703 89.6757 41.6956 90.3073 43.4967" fill-rule="evenodd" transform="matrix(1.0084 0 -0 1 538.277 677)"/><path d="M57.9177 40.1732C60.212 40.4734 62.4635 40.7638 64.6701 41.0504 63.6993 36.3116 63.674 31.3019 64.596 26.0212 62.4479 25.7698 60.2978 25.5281 58.1399 25.2961 56.7072 30.3253 56.635 35.2863 57.9177 40.1732" fill="#F6CD47" fill-rule="evenodd" transform="matrix(1.0084 0 -0 1 538.277 677)"/><path d="M61.2296 41.3564 57.8592 40.9178C57.5512 40.8925 57.2783 40.6781 57.1964 40.3642 56.5376 37.8555 56.2276 35.3272 56.2647 32.7795 56.3037 30.2259 56.6877 27.6645 57.4206 25.0914 57.5181 24.7483 57.8514 24.5144 58.2179 24.5534 59.3446 24.6743 60.4206 24.7932 61.4537 24.9082 62.5687 25.0329 63.6369 25.1558 64.6545 25.2747L64.7227 25.2844C65.1301 25.3546 65.403 25.7425 65.3328 26.1499 64.8767 28.7542 64.6564 31.2844 64.6681 33.7346 64.6798 36.1888 64.9254 38.5767 65.4011 40.9003 65.4167 40.9782 65.4206 41.0601 65.4108 41.142 65.3582 41.5513 64.9859 41.8398 64.5765 41.7892ZM58.5181 39.4987 63.7461 40.179C63.3777 38.0835 63.1867 35.9373 63.1769 33.7405 63.1652 31.4325 63.3484 29.0758 63.7286 26.6723L61.29 26.3936C60.3972 26.2941 59.5298 26.1967 58.6935 26.107 58.1009 28.3585 57.789 30.5885 57.7559 32.797 57.7228 35.0446 57.9762 37.2785 58.5181 39.4987" fill-rule="evenodd" transform="matrix(1.0084 0 -0 1 538.277 677)"/><path d="M133.453 48.7014C153.414 33.0446 163.394 25.2162 163.394 25.2162 162.615 16.1402 162.225 11.6023 162.225 11.6023 162.225 11.6023 151.246 19.3995 129.289 34.9939 129.254 41.6176 130.642 46.1868 133.453 48.7014" fill="#C68541" fill-rule="evenodd" transform="matrix(1.0084 0 -0 1 538.277 677)"/><path d="M163.853 25.8049 133.911 49.2901C133.633 49.5084 133.229 49.5006 132.956 49.2569 131.445 47.9061 130.325 46.023 129.59 43.6059 128.876 41.257 128.527 38.3954 128.543 35.0251 128.533 34.7814 128.642 34.5377 128.857 34.3857L161.751 11.0253C161.864 10.9317 162.005 10.8693 162.164 10.8576 162.576 10.8225 162.936 11.1305 162.97 11.5418L164.139 25.1538 164.137 25.1538C164.157 25.3975 164.059 25.6431 163.853 25.8049ZM133.504 47.7131 162.615 24.879 161.591 12.9687 130.034 35.3798C130.044 38.45 130.371 41.0484 131.017 43.1732 131.594 45.0698 132.422 46.5844 133.504 47.7131" fill-rule="evenodd" transform="matrix(1.0084 0 -0 1 538.277 677)"/><path d="M38.1147 37.5455C36.9081 32.6606 36.8613 27.9686 37.9724 23.4638 35.9685 23.3176 33.9491 23.1831 31.9198 23.0603 30.2902 27.2474 30.105 31.7736 31.3662 36.6332 33.6469 36.9432 35.8964 37.2473 38.1147 37.5455" fill="#F6CD47" fill-rule="evenodd" transform="matrix(1.0084 0 -0 1 538.277 677)"/><path d="M37.9198 30.3565C37.9432 32.6411 38.2492 34.9783 38.8399 37.3662 38.8613 37.4559 38.8671 37.5494 38.8535 37.6449 38.7989 38.0523 38.4227 38.3389 38.0153 38.2843L31.2668 37.372C30.9744 37.333 30.723 37.1225 30.643 36.8204 29.9959 34.3175 29.7191 31.9003 29.8126 29.5651 29.9082 27.2318 30.374 24.9862 31.2083 22.8263 31.3117 22.5125 31.6157 22.2942 31.9627 22.3137 33.0231 22.378 34.0348 22.4423 35.0056 22.5086 36.0387 22.5768 37.0446 22.647 38.0251 22.7191 38.066 22.7211 38.1089 22.7289 38.1498 22.7386 38.5514 22.838 38.795 23.2415 38.6976 23.6431 38.1557 25.8361 37.8964 28.0739 37.9198 30.3565ZM37.144 36.6605C36.6878 34.5319 36.45 32.4345 36.4286 30.3682 36.4071 28.2551 36.6138 26.1811 37.0485 24.148 36.3233 24.0953 35.6099 24.0466 34.9062 23.9998 34.0543 23.9413 33.2259 23.8887 32.4247 23.838 31.76 25.6996 31.3857 27.6275 31.3039 29.6236 31.222 31.6625 31.4423 33.7756 31.9666 35.9607L37.144 36.6605" fill-rule="evenodd" transform="matrix(1.0084 0 -0 1 538.277 677)"/><path d="M131.716 46.4987C131.494 46.6624 131.182 46.6137 131.02 46.3915 130.857 46.1692 130.905 45.8573 131.128 45.6956L148.549 32.9081C148.771 32.7463 149.083 32.7951 149.244 33.0153 149.406 33.2376 149.359 33.5494 149.137 33.7112L131.716 46.4987" fill-rule="evenodd" transform="matrix(1.0084 0 -0 1 538.277 677)"/><path d="M129.687 38.5748C129.465 38.7365 129.153 38.6878 128.991 38.4675 128.829 38.2453 128.876 37.9334 129.098 37.7697L162.129 13.5282C162.352 13.3644 162.663 13.4132 162.825 13.6354 162.989 13.8576 162.94 14.1675 162.718 14.3313L129.687 38.5748" fill-rule="evenodd" transform="matrix(1.0084 0 -0 1 538.277 677)"/><path d="M131.028 45.0153C130.81 45.179 130.498 45.1342 130.332 44.9158 130.169 44.6956 130.211 44.3837 130.432 44.2199L139.656 37.3116C139.876 37.1459 140.188 37.1908 140.352 37.411 140.517 37.6293 140.473 37.9412 140.252 38.1069L131.028 45.0153" fill-rule="evenodd" transform="matrix(1.0084 0 -0 1 538.277 677)"/><path d="M129.976 41.0874C129.751 41.2472 129.44 41.1966 129.28 40.9724 129.12 40.7482 129.171 40.4363 129.397 40.2765L141.956 31.2668C142.18 31.107 142.492 31.1596 142.652 31.3838 142.812 31.6079 142.761 31.9198 142.537 32.0797L129.976 41.0874" fill-rule="evenodd" transform="matrix(1.0084 0 -0 1 538.277 677)"/><path d="M162.632 19.2513C162.856 19.0934 163.166 19.148 163.324 19.3741 163.48 19.5983 163.426 19.9082 163.201 20.0661L155.864 25.2045C155.64 25.3604 155.33 25.3058 155.172 25.0817 155.014 24.8556 155.071 24.5456 155.295 24.3877L162.632 19.2513" fill-rule="evenodd" transform="matrix(1.0084 0 -0 1 538.277 677)"/><path d="M162.4 16.6178C162.623 16.458 162.934 16.5086 163.094 16.7309 163.254 16.955 163.203 17.265 162.981 17.4268L150.677 26.2766C150.455 26.4364 150.143 26.3858 149.983 26.1635 149.823 25.9394 149.874 25.6294 150.096 25.4676L162.4 16.6178" fill-rule="evenodd" transform="matrix(1.0084 0 -0 1 538.277 677)"/><path d="M34.1771 51.9782C32.2454 57.1731 32.8691 67.4654 36.6099 71.0657L158.808 62.0833C160.794 61.0268 160.638 46.9918 159.182 43.5552L138.211 44.9685 133.453 48.7014C127.779 48.2959 120.654 47.639 112.085 46.7287L34.1771 51.9782" fill="#009490" fill-rule="evenodd" transform="matrix(1.0084 0 -0 1 538.277 677)"/><path d="M32.6001 62.8494C32.0972 58.9079 32.413 54.6253 33.4598 51.7696 33.5436 51.4752 33.8048 51.253 34.1284 51.2316L112.034 45.9841C112.077 45.9802 112.12 45.9821 112.163 45.986 116.5 46.446 120.42 46.8398 123.921 47.1614 127.307 47.4753 130.408 47.7326 133.221 47.9353L137.712 44.411C137.833 44.3038 137.987 44.2355 138.161 44.2238L159.131 42.8106 159.133 42.8125C159.441 42.793 159.741 42.9665 159.868 43.2667 160.681 45.1809 161.11 50.1263 161.022 54.483 160.94 58.4947 160.361 62.1048 159.159 62.7442 159.069 62.7909 158.968 62.8202 158.86 62.828L36.6625 71.8104C36.4598 71.824 36.2512 71.7558 36.0933 71.6037 34.1986 69.7811 33.0563 66.4361 32.6001 62.8494ZM34.719 52.6897C33.8633 55.3271 33.6274 59.1243 34.0797 62.6623 34.4773 65.787 35.4032 68.672 36.9003 70.2938L158.55 61.3524C159.151 60.7715 159.463 57.8124 159.531 54.4518 159.609 50.6156 159.291 46.3583 158.671 44.3388L138.488 45.6995 133.911 49.2901C133.761 49.407 133.578 49.4577 133.401 49.446L133.401 49.448C130.615 49.2491 127.41 48.9821 123.789 48.6468 120.186 48.3154 116.28 47.9256 112.073 47.4792L34.719 52.6897" fill-rule="evenodd" transform="matrix(1.0084 0 -0 1 538.277 677)"/><path d="M138.211 44.9685 159.182 43.5552 153.504 32.9725ZM129.689 40.6995C129.652 40.4773 129.619 40.2551 129.588 40.027 129.619 40.2551 129.652 40.4773 129.689 40.6995ZM129.865 41.6469C129.802 41.3525 129.748 41.0523 129.697 40.7443 129.748 41.0523 129.802 41.3525 129.865 41.6469ZM130.028 42.3778C129.981 42.181 129.935 41.9841 129.892 41.7814 129.935 41.9841 129.981 42.181 130.028 42.3778ZM130.685 44.4967C130.49 43.9958 130.317 43.4656 130.165 42.9061 130.317 43.4656 130.49 43.9958 130.685 44.4967ZM131.091 45.448C130.952 45.1556 130.82 44.8496 130.697 44.5318 130.82 44.8496 130.952 45.1556 131.091 45.448ZM34.1771 51.9782 112.085 46.7287C94.8823 44.9022 71.8416 42.0582 42.9665 38.1966L42.9626 38.1966C37.105 47.3837 34.1771 51.9782 34.1771 51.9782" fill="#009490" fill-rule="evenodd" transform="matrix(1.0084 0 -0 1 538.277 677)"/><path d="M159.233 44.3018 138.26 45.715 138.26 45.7131C138.022 45.7287 137.781 45.6293 137.623 45.4285 137.369 45.103 137.428 44.6351 137.751 44.3817L153.009 32.413C153.051 32.376 153.1 32.3428 153.151 32.3155 153.515 32.1187 153.968 32.2571 154.163 32.6196L159.829 43.181C159.884 43.2784 159.921 43.3876 159.927 43.5065 159.954 43.9178 159.644 44.2745 159.233 44.3018ZM140.578 44.0601 157.975 42.8886 153.266 34.1089ZM130.51 41.066C130.443 40.6839 130.385 40.3096 130.326 39.9256L129.773 40.0016C129.709 39.9938 129.64 39.9958 129.574 40.0075 129.519 40.0172 129.469 40.0309 129.42 40.0504L128.849 40.1283 128.898 40.4773 128.96 40.8671 129.044 41.3369C129.071 41.487 129.102 41.641 129.134 41.797L130.595 41.4987ZM129.303 42.5533 129.231 42.2453 129.161 41.9354 130.623 41.6254 130.687 41.9178 130.753 42.2024ZM129.987 44.7657 131.379 44.2277C131.293 44.0036 131.208 43.7579 131.12 43.4928 131.108 43.4539 131.095 43.4129 131.083 43.3759 131.007 43.142 130.941 42.9217 130.884 42.7112L129.445 43.101C129.531 43.4149 129.615 43.6995 129.699 43.9548 129.785 44.218 129.882 44.4889 129.987 44.7657ZM131.091 46.1965 131.091 46.1946C130.812 46.1946 130.543 46.0367 130.416 45.7677 130.334 45.5961 130.262 45.4402 130.202 45.296 130.145 45.1653 130.079 44.9997 130.001 44.8008L131.393 44.2628 131.403 44.2882C131.447 44.4012 131.504 44.5396 131.576 44.7034 131.636 44.8457 131.693 44.9724 131.746 45.0854 131.806 45.1926 131.839 45.3174 131.839 45.448 131.839 45.8612 131.504 46.1965 131.091 46.1965ZM112.134 47.4753 34.2278 52.7228 34.2259 52.7208C34.0738 52.7325 33.9159 52.6955 33.7756 52.6058 33.4286 52.3856 33.3272 51.9236 33.5475 51.5766L42.3116 37.8301C42.4461 37.5923 42.7073 37.4364 42.9977 37.45L43.062 37.4559C57.3543 39.3681 70.3308 41.0426 81.9935 42.4831 93.549 43.91 103.598 45.0757 112.138 45.9841 112.504 46.0094 112.806 46.3018 112.83 46.68 112.857 47.0913 112.545 47.448 112.134 47.4753ZM35.6001 51.1322 103.604 46.5513C97.0129 45.8106 89.7498 44.949 81.8122 43.9685 70.555 42.5786 57.7306 40.9217 43.3369 38.9978L35.6001 51.1322" fill-rule="evenodd" transform="matrix(1.0084 0 -0 1 538.277 677)"/><path d="M141.196 63.3777C149.262 62.7831 153.297 62.4869 153.297 62.4869 154.215 56.7423 154.157 50.5688 153.122 43.9646 144.991 44.5123 140.925 44.7852 140.925 44.7852 141.593 51.6526 141.683 57.8495 141.196 63.3777" fill="#4FBC9D" fill-rule="evenodd" transform="matrix(1.0084 0 -0 1 538.277 677)"/><path d="M153.35 63.2334 141.289 64.1204C141.237 64.1262 141.186 64.1282 141.131 64.1223 140.718 64.0872 140.414 63.7247 140.449 63.3134 140.693 60.5551 140.792 57.6487 140.749 54.5922 140.705 51.5318 140.517 48.3018 140.188 44.9022L140.178 44.8359C140.151 44.4246 140.463 44.0679 140.876 44.0406L153.071 43.2199 153.073 43.2199C153.455 43.1946 153.798 43.4656 153.858 43.8496 154.381 47.1868 154.658 50.4187 154.687 53.5434 154.716 56.6565 154.502 59.6623 154.04 62.559 154.007 62.9157 153.718 63.2061 153.35 63.2334ZM142.013 62.5687 152.65 61.7851C153.04 59.1341 153.223 56.3894 153.196 53.5532 153.17 50.715 152.935 47.7833 152.488 44.756L141.74 45.4811C142.03 48.6507 142.198 51.6838 142.239 54.5746 142.28 57.3875 142.206 60.0522 142.013 62.5687" fill-rule="evenodd" transform="matrix(1.0084 0 -0 1 538.277 677)"/><path d="M146.289 44.5123C146.213 44.1069 146.48 43.717 146.886 43.641 147.291 43.5669 147.681 43.834 147.757 44.2375 148.402 47.6605 148.743 50.9411 148.781 54.0815 148.82 57.2257 148.549 60.2237 147.974 63.0775 147.894 63.4829 147.502 63.7442 147.098 63.6623 146.695 63.5824 146.432 63.1886 146.514 62.787 147.067 60.0366 147.326 57.1399 147.289 54.099 147.254 51.0522 146.921 47.8573 146.289 44.5123" fill-rule="evenodd" transform="matrix(1.0084 0 -0 1 538.277 677)"/><path d="M42.1751 70.6564C50.5376 70.0404 54.7189 69.7344 54.7189 69.7344 52.6624 63.8397 52.1965 57.4908 53.3193 50.6877 53.3193 50.6877 49.1361 50.9704 40.7677 51.5337 39.294 58.2861 39.7619 64.6584 42.1751 70.6564" fill="#4FBC9D" fill-rule="evenodd" transform="matrix(1.0084 0 -0 1 538.277 677)"/><path d="M54.7715 70.479 42.2258 71.401C41.912 71.4225 41.604 71.2431 41.4812 70.9332 40.2453 67.8611 39.5085 64.6935 39.2687 61.4303 39.0289 58.1711 39.2843 54.8202 40.0367 51.3758 40.1069 51.0581 40.3779 50.8105 40.719 50.7871L53.2686 49.9411C53.3251 49.9392 53.3817 49.9411 53.4382 49.9509 53.8456 50.0172 54.1224 50.4012 54.0561 50.8086 53.5045 54.1497 53.3427 57.3797 53.5727 60.4986 53.7988 63.5941 54.4109 66.5765 55.4089 69.4439 55.4401 69.518 55.4596 69.5979 55.4635 69.6817 55.4928 70.093 55.1828 70.4498 54.7715 70.479ZM42.6683 69.8708 53.7072 69.0599C52.8378 66.3328 52.2939 63.5141 52.0815 60.6038 51.8651 57.6643 51.984 54.6292 52.4382 51.4967L41.3837 52.2413C40.7502 55.3544 40.5435 58.3816 40.7599 61.3251 40.9743 64.2549 41.6118 67.1048 42.6683 69.8708" fill-rule="evenodd" transform="matrix(1.0084 0 -0 1 538.277 677)"/><path d="M46.3193 50.9353C46.4148 50.5357 46.8184 50.2881 47.2199 50.3856 47.6195 50.4811 47.8651 50.8866 47.7696 51.2862 47.0191 54.3758 46.7287 57.4557 46.8827 60.5609 47.0367 63.6642 47.641 66.8007 48.6819 69.9995 48.8086 70.3913 48.5942 70.8123 48.2024 70.941 47.8106 71.0677 47.3895 70.8533 47.2608 70.4614 46.179 67.1398 45.5533 63.8748 45.3915 60.6311 45.2297 57.3855 45.5357 54.1672 46.3193 50.9353" fill-rule="evenodd" transform="matrix(1.0084 0 -0 1 538.277 677)"/><path d="M133.732 50.6429C136.788 50.2959 137.363 58.7949 133.919 59.1574 133.919 59.1574 108.138 61.0054 62.1028 64.6233 57.6994 64.98 57.1302 55.2199 62.2276 54.9177 107.514 52.4226 133.732 50.6429 133.732 50.6429" fill="#F6CD47" fill-rule="evenodd" transform="matrix(1.0084 0 -0 1 538.277 677)"/><path d="M135.18 52.8027C134.88 51.9411 134.406 51.3232 133.822 51.3856L133.783 51.3895C133.707 51.3934 107.603 53.1653 62.2802 55.6623L62.2705 55.6643C60.7598 55.754 59.8631 56.9352 59.5181 58.368 59.3738 58.9606 59.3231 59.5999 59.3582 60.2296 59.3933 60.8514 59.5142 61.4596 59.7188 62.0015 60.1457 63.1399 60.945 63.9664 62.0444 63.8787 108.025 60.2646 133.792 58.4167 133.866 58.4128 134.775 58.2998 135.293 57.2198 135.465 55.9508 135.535 55.4206 135.545 54.8612 135.494 54.3193 135.447 53.7813 135.34 53.2628 135.18 52.8027ZM133.675 49.8983C135.079 49.7521 136.065 50.8066 136.59 52.3115 136.788 52.8846 136.921 53.5259 136.979 54.1848 137.04 54.8397 137.03 55.5122 136.944 56.1516 136.685 58.0697 135.746 59.7149 133.995 59.9001L133.972 59.9021C133.898 59.9079 108.251 61.7461 62.1613 65.3679 60.2802 65.5219 58.9742 64.2666 58.3192 62.5278 58.0639 61.8436 57.9099 61.0834 57.867 60.3114 57.8222 59.5434 57.8884 58.7578 58.0678 58.0171 58.5571 55.9879 59.8884 54.3076 62.1828 54.1731L62.2003 54.1711C107.173 51.6936 133.299 49.9236 133.675 49.8983" fill-rule="evenodd" transform="matrix(1.0084 0 -0 1 538.277 677)"/><path d="M1.56919 71.8045 36.9997 37.3954 42.9646 38.1966 42.9626 38.1966 34.1771 51.9782C32.2454 57.1731 32.8691 67.4654 36.6099 71.0657L158.808 62.0833C160.794 61.0268 160.638 46.9918 159.182 43.5552L157.593 40.5962 162.408 40.7229 173.732 81.5354C102.576 76.9955 45.7014 74.1105 1.56919 71.8045" fill="#F6CD47" fill-rule="evenodd" transform="matrix(1.0084 0 -0 1 538.277 677)"/><g clip-path="url(#clip4)"><path d="M37.259 38.1829 3.31576 71.1476 13.1441 71.6603C55.3095 73.8552 108.145 76.6076 172.732 80.7226L161.837 41.4539 158.86 41.3759 159.839 43.2024 159.868 43.2667C160.681 45.1809 161.11 50.1263 161.022 54.483 160.94 58.4947 160.361 62.1048 159.159 62.7442 159.069 62.7909 158.968 62.8202 158.86 62.828L36.6625 71.8104C36.4598 71.824 36.2512 71.7558 36.0933 71.6037 34.1986 69.7811 33.0563 66.4361 32.6001 62.8494 32.0953 58.8845 32.4169 54.5727 33.4793 51.717 33.4968 51.6682 33.5202 51.6214 33.5475 51.5766L41.7073 38.7794ZM1.05652 71.2607 36.4793 36.8594C36.6527 36.6917 36.8867 36.6235 37.1089 36.6566L43.064 37.4559C43.4734 37.5124 43.7599 37.8867 43.7053 38.296 43.6878 38.4286 43.6351 38.5494 43.5591 38.6488L34.8496 52.3076C33.8886 54.9508 33.606 58.9508 34.0797 62.6623 34.4773 65.787 35.4032 68.672 36.9003 70.2938L158.55 61.3524C159.151 60.7715 159.463 57.8124 159.531 54.4518 159.615 50.2998 159.237 45.6546 158.511 43.8886L156.936 40.949C156.741 40.5864 156.876 40.1342 157.241 39.9373 157.371 39.8671 157.515 39.8399 157.656 39.8515L162.426 39.9783C162.763 39.986 163.042 40.2161 163.127 40.5241L174.451 81.3347C174.56 81.7323 174.328 82.1436 173.93 82.2528 173.849 82.2762 173.765 82.284 173.685 82.2801 108.543 78.1242 55.4187 75.3581 13.0681 73.1515L1.5302 72.5492C1.1189 72.5277 0.801164 72.1768 0.822606 71.7655 0.832352 71.5648 0.92202 71.3874 1.05652 71.2607" fill-rule="evenodd" transform="matrix(1.0084 0 -0 1 538.277 677)"/></g><path d="M1.56919 71.8045C120.408 78.5355 177.94 81.7869 173.732 81.5354 174.223 88.2352 173.587 94.8004 172.256 101.258 104.034 99.1435 47.1147 95.0889 1.49706 89.0948 0.471731 82.8512 0.495123 77.0871 1.56919 71.8045" fill="#F6CD47" fill-rule="evenodd" transform="matrix(1.0084 0 -0 1 538.277 677)"/><g clip-path="url(#clip5)"><path d="M133.753 80.0345C105.145 78.4166 61.2685 75.9331 2.17542 72.5862 1.20662 77.8123 1.33527 83.1904 2.14618 88.4282 24.7854 91.3892 50.2218 93.8745 78.4536 95.8862 106.756 97.9018 137.822 99.4378 171.65 100.494 172.845 94.4847 173.412 88.3755 173.03 82.2508ZM1.61012 71.0579C61.0307 74.4244 105.122 76.9195 133.835 78.5433 147.652 79.323 160.878 80.0793 173.548 80.8103 173.619 80.7928 173.695 80.785 173.773 80.7889 173.656 81.8688 173.973 82.9545 174.603 83.8161 174.815 89.7381 174.182 95.6114 172.987 101.409 172.913 101.775 172.582 102.023 172.219 102.003 138.077 100.945 106.787 99.4027 78.3483 97.3774 49.8905 95.3502 24.2415 92.8355 1.40155 89.8356 1.06627 89.7907 0.812859 89.5315 0.760228 89.2157-0.192981 83.4146-0.33528 77.4361 0.8382 71.6583 0.910325 71.2899 1.2456 71.0384 1.61012 71.0599L1.61012 71.0579" fill-rule="evenodd" transform="matrix(1.0084 0 -0 1 538.277 677)"/></g><path d="M1.56919 71.8045 15.6471 72.6018C13.8303 78.9741 13.5223 85.0188 14.727 90.742 10.2163 90.2098 5.80697 89.6621 1.49706 89.0948 0.471731 82.8512 0.495123 77.0871 1.56919 71.8045" fill="#C68541" fill-rule="evenodd" transform="matrix(1.0084 0 -0 1 538.277 677)"/><path d="M14.6802 73.2938 2.17542 72.5862C1.73098 74.9877 1.50291 77.4887 1.49122 80.093 1.48147 82.7616 1.69979 85.5393 2.14618 88.4282 3.94344 88.664 5.93758 88.9174 8.12859 89.1884 10.0506 89.4282 11.9414 89.6582 13.7972 89.8785 13.3332 87.2761 13.1695 84.6114 13.3079 81.8805 13.4502 79.0813 13.9083 76.2177 14.6802 73.2938ZM1.61012 71.0579 15.688 71.8552C16.0993 71.8786 16.4151 72.2295 16.3917 72.6427 16.3897 72.6992 16.38 72.7538 16.3644 72.8045 15.4716 75.9409 14.9492 78.9896 14.7991 81.9506 14.649 84.9097 14.8693 87.7908 15.456 90.59 15.5418 90.9935 15.2806 91.3892 14.879 91.473 14.7972 91.4905 14.7172 91.4925 14.6412 91.4827 12.3118 91.2098 10.0818 90.9408 7.94536 90.6738 5.95512 90.4262 3.7719 90.1455 1.40155 89.8356 1.06627 89.7907 0.812859 89.5315 0.760228 89.2157 0.241714 86.0559-0.0116958 83.013 0 80.0871 0.0116958 77.1573 0.292396 74.3464 0.8382 71.6583 0.910325 71.2899 1.2456 71.0384 1.61012 71.0599L1.61012 71.0579" fill-rule="evenodd" transform="matrix(1.0084 0 -0 1 538.277 677)"/><path d="M155.86 100.705C157.182 94.7926 157.866 88.1065 157.911 80.6505 169.835 81.323 175.114 81.6173 173.732 81.5354 174.223 88.2352 173.587 94.8004 172.256 101.258 166.716 101.087 161.252 100.902 155.86 100.705" fill="#C68541" fill-rule="evenodd" transform="matrix(1.0084 0 -0 1 538.277 677)"/><g clip-path="url(#clip6)"><path d="M158.108 91.3326C157.798 94.3736 157.354 97.2585 156.779 99.9914 161.736 100.171 166.693 100.338 171.65 100.494 172.845 94.4827 173.412 88.3736 173.03 82.2469L158.65 81.4399C158.609 84.9097 158.428 88.2079 158.108 91.3326ZM155.139 100.514C156.586 94.0305 157.126 87.282 157.166 80.6466 157.166 80.2353 157.502 79.9019 157.915 79.9039 163.116 80.0598 168.465 80.4965 173.687 80.7889 173.808 80.783 173.952 80.7986 174.075 80.8064 173.946 81.7596 174.12 82.7538 174.595 83.5939 174.829 89.5861 174.197 95.5314 172.987 101.409 172.913 101.775 172.582 102.023 172.219 102.003 166.757 101.835 161.295 101.65 155.835 101.451 155.354 101.434 155.018 100.974 155.139 100.514" fill-rule="evenodd" transform="matrix(1.0084 0 -0 1 538.277 677)"/></g><path d="M47.2277 78.1885C47.6897 80.7187 47.3174 89.9077 46.8534 90.1182 46.8534 90.1182 36.7171 89.2449 19.9998 87.4984 19.4891 83.6037 19.7386 79.9234 20.7484 76.4575 38.0894 77.5803 47.2277 78.1885 47.2277 78.1885" fill="#009490" fill-rule="evenodd" transform="matrix(1.0084 0 -0 1 538.277 677)"/><path d="M46.6527 84.6641C46.7209 82.5101 46.7111 80.2275 46.5708 78.8941 44.3038 78.744 35.6917 78.1748 21.3039 77.2431 20.9082 78.7401 20.6568 80.2801 20.5496 81.8668 20.4404 83.4769 20.4794 85.128 20.6685 86.8181 35.1654 88.3288 44.639 89.1728 46.5552 89.3404 46.5747 88.8882 46.5844 86.8921 46.6527 84.6641ZM47.9684 78.1008C48.1926 79.3873 48.2258 82.1514 48.1439 84.7128 48.0503 87.7303 47.6702 90.5685 47.1595 90.8005 47.0406 90.8531 46.9139 90.8726 46.7911 90.8629 46.7618 90.8609 36.7327 89.9974 19.9238 88.241 19.5613 88.204 19.2864 87.9136 19.2552 87.5646 18.996 85.5744 18.9316 83.6426 19.0583 81.7674 19.185 79.8766 19.5106 78.0384 20.031 76.2509 20.1305 75.9078 20.4521 75.6914 20.7932 75.7129 38.1732 76.8376 47.2492 77.4419 47.2764 77.4439 47.641 77.4672 47.9275 77.7499 47.9684 78.1008" fill-rule="evenodd" transform="matrix(1.0084 0 -0 1 538.277 677)"/><path d="M130.843 11.7368C130.57 11.7075 130.373 11.4619 130.401 11.189 130.43 10.9161 130.675 10.7173 130.948 10.7465L158.584 13.7309C158.856 13.7601 159.055 14.0057 159.026 14.2786 158.997 14.5515 158.751 14.7504 158.478 14.7211L130.843 11.7368" fill-rule="evenodd" transform="matrix(1.0084 0 -0 1 538.277 677)"/><path d="M140.054 14.8244C139.781 14.7933 139.586 14.5437 139.617 14.2708 139.65 13.9979 139.898 13.803 140.17 13.8342L155.835 15.686C156.11 15.7192 156.305 15.9667 156.272 16.2396 156.241 16.5125 155.993 16.7094 155.72 16.6763L140.054 14.8244" fill-rule="evenodd" transform="matrix(1.0084 0 -0 1 538.277 677)"/><path d="M64.559 5.51458C64.2861 5.49119 64.0853 5.24752 64.1087 4.97462 64.134 4.70172 64.3757 4.49899 64.6486 4.52433L66.7071 4.71146C66.9819 4.73681 67.1827 4.97852 67.1574 5.25142 67.134 5.52432 66.8923 5.72705 66.6174 5.70171L64.559 5.51458" fill-rule="evenodd" transform="matrix(1.0084 0 -0 1 538.277 677)"/><path d="M132.555 17.7231C132.36 17.5281 132.36 17.2123 132.555 17.0174 132.749 16.8225 133.065 16.8225 133.26 17.0174L134.757 18.5145C134.952 18.7094 134.952 19.0252 134.757 19.2201 134.562 19.4151 134.247 19.4151 134.054 19.2201L132.555 17.7231" fill-rule="evenodd" transform="matrix(1.0084 0 -0 1 538.277 677)"/><path d="M119.808 29.0972C119.533 29.0972 119.309 28.8731 119.309 28.5982 119.309 28.3234 119.533 28.0992 119.808 28.0992L120.744 28.0992C121.021 28.0992 121.243 28.3234 121.243 28.5982 121.243 28.8731 121.021 29.0972 120.744 29.0972L119.808 29.0972" fill-rule="evenodd" transform="matrix(1.0084 0 -0 1 538.277 677)"/><path d="M98.048 11.8245C97.9076 11.5886 97.9837 11.2826 98.2195 11.1422 98.4554 11.0019 98.7614 11.0779 98.9018 11.3138L99.4632 12.2494C99.6035 12.4853 99.5275 12.7913 99.2916 12.9317 99.0577 13.072 98.7497 12.996 98.6094 12.7601L98.048 11.8245" fill-rule="evenodd" transform="matrix(1.0084 0 -0 1 538.277 677)"/><path d="M42.2375 19.918C41.9685 19.8653 41.7931 19.6022 41.8457 19.3312 41.9003 19.0603 42.1634 18.8868 42.4324 18.9394L43.3681 19.1266C43.639 19.1811 43.8145 19.4443 43.7599 19.7133 43.7073 19.9843 43.4441 20.1597 43.1732 20.1051L42.2375 19.918" fill-rule="evenodd" transform="matrix(1.0084 0 -0 1 538.277 677)"/><path d="M81.0501 17.9336C80.7908 18.0252 80.5062 17.8888 80.4146 17.6295 80.3249 17.3702 80.4594 17.0856 80.7187 16.994L81.514 16.7133C81.7733 16.6217 82.0579 16.7582 82.1495 17.0174 82.2411 17.2767 82.1046 17.5613 81.8454 17.6529L81.0501 17.9336" fill-rule="evenodd" transform="matrix(1.0084 0 -0 1 538.277 677)"/><path d="M159.057 71.2529C158.831 71.0969 158.775 70.787 158.931 70.5609 159.087 70.3347 159.396 70.2782 159.623 70.4342L162.055 72.1184C162.281 72.2743 162.338 72.5842 162.182 72.8104 162.026 73.0365 161.716 73.093 161.49 72.9371L159.057 71.2529" fill-rule="evenodd" transform="matrix(1.0084 0 -0 1 538.277 677)"/><path d="M133.371 69.4712C133.613 69.3387 133.915 69.4283 134.046 69.67 134.178 69.9117 134.089 70.2139 133.847 70.3445L132.818 70.9059C132.578 71.0365 132.274 70.9488 132.143 70.7071 132.013 70.4653 132.102 70.1632 132.342 70.0326L133.371 69.4712" fill-rule="evenodd" transform="matrix(1.0084 0 -0 1 538.277 677)"/><path d="M27.376 56.3173C27.1304 56.1945 27.031 55.8963 27.1538 55.6506 27.2766 55.405 27.5748 55.3056 27.8204 55.4284L28.569 55.8027C28.8146 55.9255 28.914 56.2237 28.7912 56.4694 28.6684 56.715 28.3702 56.8144 28.1245 56.6916L27.376 56.3173" fill-rule="evenodd" transform="matrix(1.0084 0 -0 1 538.277 677)"/><path d="M19.0388 69.1301C18.7971 69.2607 18.495 69.1691 18.3644 68.9273 18.2338 68.6856 18.3254 68.3815 18.5671 68.2529L19.7835 67.5979C20.0252 67.4673 20.3273 67.5589 20.4579 67.8007 20.5885 68.0424 20.4969 68.3445 20.2552 68.4751L19.0388 69.1301" fill-rule="evenodd" transform="matrix(1.0084 0 -0 1 538.277 677)"/><g clip-path="url(#clip7)"><path d="M173.913 84.3892C174.188 84.4048 174.396 84.6387 174.383 84.9136 174.367 85.1865 174.133 85.399 173.858 85.3834L91.8492 80.8824C91.5763 80.8668 91.3658 80.631 91.3794 80.3581 91.395 80.0832 91.6289 79.8727 91.9038 79.8883L173.913 84.3892" fill-rule="evenodd" transform="matrix(1.0084 0 -0 1 538.277 677)"/></g><path d="M168.817 87.1865C169.092 87.2021 169.301 87.4379 169.285 87.7128 169.27 87.9857 169.034 88.1962 168.759 88.1806L147.239 86.8707C146.966 86.8551 146.755 86.6173 146.771 86.3444 146.786 86.0695 147.022 85.8609 147.297 85.8765L168.817 87.1865" fill-rule="evenodd" transform="matrix(1.0084 0 -0 1 538.277 677)"/><path d="M131.334 91.0812C131.061 91.0656 130.851 90.8297 130.865 90.5568 130.88 90.282 131.114 90.0714 131.389 90.087L139.436 90.5549C139.71 90.5685 139.921 90.8044 139.905 91.0792 139.89 91.3521 139.656 91.5627 139.381 91.549L131.334 91.0812" fill-rule="evenodd" transform="matrix(1.0084 0 -0 1 538.277 677)"/><path d="M137.139 93.6075C136.864 93.5938 136.654 93.3619 136.666 93.087 136.679 92.8122 136.911 92.5997 137.186 92.6133L146.543 93.0812C146.818 93.0929 147.03 93.3268 147.016 93.6016 147.005 93.8745 146.771 94.087 146.496 94.0753L137.139 93.6075" fill-rule="evenodd" transform="matrix(1.0084 0 -0 1 538.277 677)"/><path d="M139.757 95.9115C139.482 95.894 139.274 95.6581 139.291 95.3833 139.309 95.1104 139.545 94.9018 139.82 94.9174L145.237 95.2663C145.512 95.2839 145.72 95.5197 145.703 95.7946 145.685 96.0694 145.447 96.278 145.172 96.2605L139.757 95.9115" fill-rule="evenodd" transform="matrix(1.0084 0 -0 1 538.277 677)"/><path d="M1.10331 87.1611C0.830403 87.1358 0.629625 86.896 0.653017 86.6212 0.678357 86.3483 0.920071 86.1475 1.19297 86.1709L16.0856 87.5627C16.3585 87.5861 16.5613 87.8278 16.5359 88.1026 16.5125 88.3755 16.2689 88.5763 15.996 88.551L1.10331 87.1611" fill-rule="evenodd" transform="matrix(1.0084 0 -0 1 538.277 677)"/><path d="M0.853795 84.742C0.580892 84.7148 0.382063 84.4711 0.409353 84.1962 0.436644 83.9253 0.682256 83.7245 0.955158 83.7518L9.72897 84.6602C10.0019 84.6894 10.2007 84.9331 10.1734 85.206 10.1461 85.4808 9.90051 85.6797 9.62761 85.6524L0.853795 84.742" fill-rule="evenodd" transform="matrix(1.0084 0 -0 1 538.277 677)"/><path d="M54.5493 92.0149C54.2744 91.9934 54.0698 91.7517 54.0932 91.4769 54.1146 91.204 54.3563 90.9993 54.6312 91.0207L88.5023 93.8277C88.7771 93.8511 88.9798 94.0928 88.9584 94.3658 88.9369 94.6406 88.6952 94.8453 88.4204 94.8219L54.5493 92.0149" fill-rule="evenodd" transform="matrix(1.0084 0 -0 1 538.277 677)"/><path d="M26.5865 25.8633C26.3117 25.8497 26.1012 25.6138 26.1168 25.339 26.1324 25.0641 26.3663 24.8536 26.6411 24.8692 33.606 25.2747 40.986 25.8458 48.7833 26.5807 56.6039 27.3156 64.7968 28.2123 73.364 29.2688 73.6369 29.3019 73.8318 29.5514 73.7987 29.8243 73.7655 30.0972 73.516 30.2922 73.2431 30.259 64.6174 29.1967 56.4323 28.3 48.6897 27.569 40.9237 26.838 33.5553 26.2688 26.5865 25.8633" fill-rule="evenodd" transform="matrix(1.0084 0 -0 1 538.277 677)"/><path d="M78.2353 31.0992C77.9624 31.0582 77.7752 30.8048 77.8162 30.5319 77.8571 30.259 78.1105 30.0719 78.3834 30.1128L91.857 32.1713C92.128 32.2122 92.317 32.4656 92.2761 32.7385 92.2352 33.0114 91.9798 33.1986 91.7089 33.1576L78.2353 31.0992" fill-rule="evenodd" transform="matrix(1.0084 0 -0 1 538.277 677)"/></g></g></g></g></svg>